# xmcd
# Track frame offsets:
# 150
# 18958
# 34829
# 46151
# 59162
# 76857
# 90820
# 104445
# 117583
# 132308
# 148507
# 166459
# 181385
#
# Disc length: 2519 seconds
# Revision: 4
# Processed by: cddbd v1.5.2PL0 Copyright (c) Steve Scherf et al.
# Submitted via: VisiTrax 2.11.2.271 - For more info visit www.synapsa.com
#
DISCID=aa09d50d
DTITLE=Slim Dusty and Anne Kirkpatrick - Travellin' Still....Always Will
DYEAR=2002
DGENRE=Australian Country
TTITLE0=Slim - The End Of The Bitumen
TTITLE1=Anne - Travellin' Still...Always Will
TTITLE2=Slim - The Tracks I Left Behind
TTITLE3=Slim and Anne - The Man On The Side Of The Road
TTITLE4=Slim - Just An Old Cattle Dog
TTITLE5=Slim and Anne - Belt and Buckled
TTITLE6=Slim - Bonner (The Quiet Achiever)
TTITLE7=Slim and Anne - You And My Old Guitar
TTITLE8=Anne - I Wonder If The Creeks Are Flowing Still
TTITLE9=Slim and Featuring The T.C.B. - Claypan Boogie
TTITLE10=Anne - Sundown
TTITLE11=Slim - Taking On What's Next!
TTITLE12=Slim - The Men Who Try And Try
EXTD=EMI Music Australia
EXTT0=
EXTT1=
EXTT2=
EXTT3=
EXTT4=
EXTT5=
EXTT6=
EXTT7=
EXTT8=
EXTT9=
EXTT10=
EXTT11=
EXTT12=
PLAYORDER=
